<svg xmlns="http://www.w3.org/2000/svg" xmlns:xlink="http://www.w3.org/1999/xlink" width="512.289" height="512" viewBox="0 -95.104 1407 1406.207">
  <defs>
    <style>

      @media (prefers-color-scheme: dark) {
      .cls-1 {
        fill: #ffffff; }
      }

      @media (prefers-color-scheme: light) {
      .cls-1 {
        fill: #000000; }
      }

    </style>
    <clipPath id="clip-path">
      <rect width="1407" height="1216"/>
    </clipPath>
  </defs>
  <g clip-path="url(#clip-path)">
    <g id="Группа_1">
      <path id="FLAWLESSANALYTICS" class="cls-1" d="M151.332,992.6v-11.88H123.306v-9.126h31.806V959.659h-43.74v54h11.934V992.6h28.026Zm23.274-32.94v42.061h30.078v11.94H162.672v-54h11.934ZM233.789,998l6.534-12.528L246.857,998H233.789Zm19.278,11.931,1.944,3.73h13.446l-1.944-3.73-1.08-2L260.3,998l-13.284-25.434-6.7-12.906-6.7,12.906L220.4,998l-5.184,9.931-1.026,2-1.944,3.73h13.446l1.944-3.73h25.434Zm54.27-34.611-4.374,10.314-5.4-10.314-6.21-11.934-1.89-3.726H276.017l1.944,3.726,1.08,2,5.13,9.936,12.8,24.624,7.128,13.717,5.994-14.257,3.834-9.018,3.78,9.018,5.994,14.257,7.128-13.717,12.8-24.624,5.184-9.936,1.026-2,1.944-3.726H338.387l-1.944,3.726-6.21,11.934-5.4,10.314-3.51-8.316-0.81-2-0.162-.27-6.426-15.39-6.48,15.39Zm63.935-15.66v42.061H401.35v11.94H359.338v-54h11.934Zm77.6,32.94v-11.88H420.79v-9.126H452.6V959.659H408.91v54H452.6v-11.94H420.79V992.6h28.08Zm11.34,5.454a16.488,16.488,0,0,0,16.416,15.607h17.28A16.485,16.485,0,0,0,509.728,992.6a16.247,16.247,0,0,0-8.775-10.287,16.1,16.1,0,0,0-7.047-1.593h-17.28a4.327,4.327,0,0,1-3.213-1.35,4.457,4.457,0,0,1-1.323-3.24,4.517,4.517,0,0,1,4.536-4.536h17.28a4.476,4.476,0,0,1,2.943,1.053,4.264,4.264,0,0,1,1.539,2.619h11.988a16.09,16.09,0,0,0-5.13-11.07,15.857,15.857,0,0,0-11.34-4.536h-17.28a16.056,16.056,0,0,0-4.536.648,16.312,16.312,0,0,0-8.559,5.913,15.866,15.866,0,0,0-3.375,9.909,16.134,16.134,0,0,0,.7,4.59,15.3,15.3,0,0,0,3.132,5.94,16.459,16.459,0,0,0,8.1,5.292,16.056,16.056,0,0,0,4.536.648h17.28a4.609,4.609,0,0,1,4.59,4.59,4.325,4.325,0,0,1-1.35,3.211,4.473,4.473,0,0,1-3.24,1.32h-17.28a4.372,4.372,0,0,1-2.916-1.05,4.278,4.278,0,0,1-1.512-2.617H460.21Zm57.78,0a16.488,16.488,0,0,0,16.416,15.607h17.28A16.485,16.485,0,0,0,567.508,992.6a16.247,16.247,0,0,0-8.775-10.287,16.11,16.11,0,0,0-7.047-1.593h-17.28a4.327,4.327,0,0,1-3.213-1.35,4.457,4.457,0,0,1-1.323-3.24,4.517,4.517,0,0,1,4.536-4.536h17.28a4.476,4.476,0,0,1,2.943,1.053,4.264,4.264,0,0,1,1.539,2.619h11.988a16.09,16.09,0,0,0-5.13-11.07,15.857,15.857,0,0,0-11.34-4.536h-17.28a16.056,16.056,0,0,0-4.536.648,16.312,16.312,0,0,0-8.559,5.913,15.866,15.866,0,0,0-3.375,9.909,16.134,16.134,0,0,0,.7,4.59,15.284,15.284,0,0,0,3.132,5.94,16.459,16.459,0,0,0,8.1,5.292,16.056,16.056,0,0,0,4.536.648h17.28a4.609,4.609,0,0,1,4.59,4.59,4.325,4.325,0,0,1-1.35,3.211,4.473,4.473,0,0,1-3.24,1.32h-17.28a4.372,4.372,0,0,1-2.916-1.05,4.278,4.278,0,0,1-1.512-2.617H517.99ZM597.261,998l6.534-12.528L610.329,998H597.261Zm19.278,11.931,1.944,3.73h13.446l-1.944-3.73-1.08-2L623.775,998l-13.284-25.434-6.7-12.906-6.7,12.906L583.869,998l-5.184,9.931-1.026,2-1.944,3.73h13.446l1.944-3.73h25.434Zm34.83-25.269,11.664,9.45,11.664,9.449,11.934,9.67v-54H674.7v29l-11.664-9.45-11.664-9.45-11.88-9.666v54h11.88v-29ZM715.737,998l6.534-12.528L728.805,998H715.737Zm19.278,11.931,1.944,3.73h13.446l-1.944-3.73-1.08-2L742.251,998l-13.284-25.434-6.7-12.906-6.7,12.906L702.345,998l-5.184,9.931-1.026,2-1.944,3.73h13.446l1.944-3.73h25.434ZM769.9,959.659v42.061h30.078v11.94H757.964v-54H769.9Zm58.86,54h11.934V991.087l21.168-31.428H847.5l-12.744,18.954-12.8-18.954H807.536l21.222,31.428v22.573Zm58.589,0h11.934V971.593h17.928V959.659h-47.79v11.934h17.928v42.067Zm37.421-32.941v32.941h11.88v-54h-11.88v21.06Zm56.97,15.12a14.266,14.266,0,0,1-5,4.321,13.885,13.885,0,0,1-6.507,1.56,13.714,13.714,0,0,1-6.48-1.59,14.593,14.593,0,0,1-5.022-4.291,14.093,14.093,0,0,1-2.646-8.262v-1.836a14.1,14.1,0,0,1,2.646-8.262,14.641,14.641,0,0,1,5.022-4.293,14.137,14.137,0,0,1,12.987-.027,14.263,14.263,0,0,1,5,4.32,15.752,15.752,0,0,1,.918,1.512l3.024-1.512,7.668-3.78a26.133,26.133,0,0,0-9.531-10.206,25.277,25.277,0,0,0-13.581-3.834,26.217,26.217,0,0,0-24.732,17.82,27.655,27.655,0,0,0-1.3,8.262v1.836a27.645,27.645,0,0,0,1.3,8.262,26.209,26.209,0,0,0,24.732,17.821,25.179,25.179,0,0,0,13.581-3.86,26.381,26.381,0,0,0,9.531-10.235l-7.668-3.726-3.024-1.512a15.629,15.629,0,0,1-.918,1.512h0Zm19.222,2.214a16.488,16.488,0,0,0,16.42,15.607h17.28a16.478,16.478,0,0,0,15.82-21.061,16.22,16.22,0,0,0-8.78-10.287,16.073,16.073,0,0,0-7.04-1.593h-17.28a4.359,4.359,0,0,1-3.22-1.35,4.466,4.466,0,0,1-1.32-3.24,4.512,4.512,0,0,1,4.54-4.536h17.28a4.483,4.483,0,0,1,2.94,1.053,4.238,4.238,0,0,1,1.54,2.619h11.99A16.107,16.107,0,0,0,1046,964.2a15.86,15.86,0,0,0-11.34-4.536h-17.28a16.1,16.1,0,0,0-4.54.648,16.341,16.341,0,0,0-8.56,5.913,15.867,15.867,0,0,0-3.37,9.909,16.094,16.094,0,0,0,.7,4.59,15.279,15.279,0,0,0,3.13,5.94,16.5,16.5,0,0,0,8.1,5.292,16.1,16.1,0,0,0,4.54.648h17.28a4.609,4.609,0,0,1,4.59,4.59,4.321,4.321,0,0,1-1.35,3.211,4.469,4.469,0,0,1-3.24,1.32h-17.28a4.382,4.382,0,0,1-2.92-1.05,4.275,4.275,0,0,1-1.51-2.617h-11.99Z"/>
    </g>
    <path id="Эллипс_1" class="cls-1" d="M180,904H359L705,310l437,750H90L0,1216H1407L703,0Z"/>
  </g>
</svg>
